<svg width="461" height="336" viewBox="0 0 461 336" fill="none" xmlns="http://www.w3.org/2000/svg">
<g clip-path="url(#clip0_0_23)">
<g opacity="0.56">
<path opacity="0.61" d="M120.692 103.631C124.863 104.217 128.582 106.472 132.529 107.94C136.993 109.601 141.799 110.268 146.164 112.174C150.529 114.08 154.62 117.7 155.141 122.434C155.378 124.583 154.882 126.895 155.852 128.827C157.522 132.152 162.106 132.208 165.81 132.572C169.812 132.965 173.721 134.278 177.149 136.381C178.73 137.351 180.322 138.66 180.653 140.485C181.102 142.964 179.107 145.117 177.867 147.31C175.78 151 175.733 155.443 175.064 159.629C174.395 163.815 172.658 168.352 168.781 170.068C167.011 170.851 164.978 170.945 163.267 171.851C157.942 174.67 158.862 182.948 154.75 187.351C152.236 190.044 147.678 191.691 147.74 195.375C147.755 196.299 148.098 197.238 147.846 198.127C147.484 199.407 146.093 200.033 144.954 200.721C140.293 203.538 138.415 209.385 138.004 214.815C137.593 220.245 138.264 225.787 137.044 231.095C136.856 231.915 136.551 232.815 135.799 233.191C134.827 233.677 133.679 233.026 132.867 232.304C129.548 229.354 127.901 224.985 126.658 220.722C123.699 210.57 122.349 199.952 122.673 189.383C122.875 182.781 123.696 175.96 121.484 169.737C116.611 156.03 98.4701 149.028 96.9171 134.563C96.7841 133.33 96.7911 132.053 97.2111 130.885C97.9361 128.869 99.7571 127.482 101.007 125.742C103.014 122.947 103.467 119.374 104.316 116.039C106.019 109.337 113.356 102.601 120.692 103.631Z" fill="#4E7B99"/>
</g>
<path opacity="0.14" d="M199.06 271.322H95.0119C93.6449 271.322 92.5359 270.214 92.5359 268.846V267.798C92.5359 266.431 93.6439 265.322 95.0119 265.322H199.06C200.427 265.322 201.536 266.43 201.536 267.798V268.846C201.536 270.214 200.427 271.322 199.06 271.322Z" fill="#110809"/>
<path opacity="0.1" d="M141.036 335.322H7.03589C3.99789 335.322 1.53589 332.86 1.53589 329.822C1.53589 326.784 3.99789 324.322 7.03589 324.322H141.036C144.074 324.322 146.536 326.784 146.536 329.822C146.536 332.86 144.074 335.322 141.036 335.322Z" fill="#110809"/>
<path opacity="0.1" d="M249.036 299.322H128.036C124.998 299.322 122.536 296.86 122.536 293.822C122.536 290.784 124.998 288.322 128.036 288.322H249.036C252.074 288.322 254.536 290.784 254.536 293.822C254.536 296.86 252.074 299.322 249.036 299.322Z" fill="#110809"/>
<path opacity="0.1" d="M417.476 335.322H303.596C302.458 335.322 301.536 334.4 301.536 333.262V330.407C301.536 329.269 302.458 328.347 303.596 328.347H417.476C418.614 328.347 419.536 329.269 419.536 330.407V333.262C419.536 334.4 418.614 335.322 417.476 335.322Z" fill="#110809"/>
<path opacity="0.1" d="M122.036 289.322H76.0359C74.6549 289.322 73.5359 288.203 73.5359 286.822C73.5359 285.441 74.6549 284.322 76.0359 284.322H122.036C123.417 284.322 124.536 285.441 124.536 286.822C124.536 288.203 123.417 289.322 122.036 289.322Z" fill="#110809"/>
<path d="M201.536 266.322H171.536V30.388C171.536 25.933 175.147 22.322 179.602 22.322H193.469C197.924 22.322 201.535 25.933 201.535 30.388V266.322H201.536Z" fill="#DE9C40"/>
<path d="M196.536 266.322H166.536V30.388C166.536 25.933 170.147 22.322 174.602 22.322H188.469C192.924 22.322 196.535 25.933 196.535 30.388V266.322H196.536Z" fill="#FFC370"/>
<path d="M161.319 266.322H145.753C142.32 266.322 139.536 263.539 139.536 260.105V20.28C139.536 16.437 142.651 13.322 146.494 13.322H160.578C164.421 13.322 167.536 16.437 167.536 20.28V260.105C167.536 263.539 164.753 266.322 161.319 266.322Z" fill="#FF9191"/>
<path d="M131.831 266.322H102.241C97.9859 266.322 94.5359 262.872 94.5359 258.617V50.677C94.5359 41.092 102.306 33.322 111.891 33.322H122.18C131.765 33.322 139.535 41.092 139.535 50.677V258.617C139.536 262.872 136.086 266.322 131.831 266.322Z" fill="#2D6F87"/>
<path opacity="0.54" d="M120.581 200.322H112.991C112.049 200.322 111.286 199.559 111.286 198.617V91.027C111.286 90.086 112.049 89.322 112.991 89.322H120.581C121.522 89.322 122.286 90.085 122.286 91.027V198.617C122.286 199.559 121.523 200.322 120.581 200.322Z" fill="#FF9191"/>
<path opacity="0.54" d="M127.786 68.322H105.786V52.28C105.786 48.99 108.453 46.322 111.744 46.322H121.828C125.118 46.322 127.786 48.989 127.786 52.28V68.322Z" fill="#FF9191"/>
<path opacity="0.54" d="M156.831 148.322H149.241C148.3 148.322 147.536 147.559 147.536 146.617V39.027C147.536 38.086 148.299 37.322 149.241 37.322H156.831C157.772 37.322 158.536 38.085 158.536 39.027V146.617C158.536 147.559 157.773 148.322 156.831 148.322Z" fill="#FF9191"/>
<path opacity="0.54" d="M182.831 151.322H175.241C174.3 151.322 173.536 150.559 173.536 149.617V42.027C173.536 41.086 174.299 40.322 175.241 40.322H182.831C183.772 40.322 184.536 41.085 184.536 42.027V149.617C184.536 150.559 183.773 151.322 182.831 151.322Z" fill="#FF9191"/>
<path d="M455.934 146.721H220.833C218.461 146.721 216.538 144.798 216.538 142.426V5.09C216.538 2.279 218.817 0 221.628 0H455.137C457.948 0 460.227 2.279 460.227 5.09V142.427C460.228 144.798 458.306 146.721 455.934 146.721Z" fill="#111314"/>
<path d="M454.968 138.385H221.799C221.697 138.385 221.615 138.303 221.615 138.201V10.35C221.615 7.43699 223.976 5.07599 226.889 5.07599H449.877C452.79 5.07599 455.151 7.43699 455.151 10.35V138.201C455.151 138.302 455.069 138.385 454.968 138.385Z" fill="white"/>
<path d="M256.753 58.824C260.856 58.824 264.182 55.4979 264.182 51.395C264.182 47.2921 260.856 43.966 256.753 43.966C252.65 43.966 249.324 47.2921 249.324 51.395C249.324 55.4979 252.65 58.824 256.753 58.824Z" fill="#FFC370"/>
<path d="M250.746 50.565L256.671 55.75L265.289 43.965" stroke="#1959A8" stroke-width="2" stroke-miterlimit="10"/>
<path d="M378.044 45.401H286.371V54.054H378.044V45.401Z" fill="#79B4C9"/>
<path d="M378.044 59.654H286.371V68.307H378.044V59.654Z" fill="#79B4C9"/>
<path d="M378.044 73.908H286.371V89.688H378.044V73.908Z" fill="#79B4C9"/>
<path d="M378.044 95.289H286.371V103.942H378.044V95.289Z" fill="#79B4C9"/>
<path d="M378.044 109.542H286.371V125.322H378.044V109.542Z" fill="#79B4C9"/>
<path d="M271.536 95.289H244.371V103.942H271.536V95.289Z" fill="#79B4C9"/>
<path d="M271.536 109.542H244.371V125.322H271.536V109.542Z" fill="#79B4C9"/>
<path d="M256.753 80.322C260.856 80.322 264.182 76.9959 264.182 72.893C264.182 68.7901 260.856 65.464 256.753 65.464C252.65 65.464 249.324 68.7901 249.324 72.893C249.324 76.9959 252.65 80.322 256.753 80.322Z" fill="#FF9191"/>
<path d="M250.746 72.062L256.671 77.248L265.289 65.463" stroke="#1959A8" stroke-width="2" stroke-miterlimit="10"/>
<path d="M425.125 44.322H397.837V57.824H425.125V44.322Z" fill="#79B4C9"/>
<path d="M425.125 61.196H397.837V74.698H425.125V61.196Z" fill="#FFC370"/>
<path d="M425.125 94.946H397.837V108.448H425.125V94.946Z" fill="#FFC370"/>
<path d="M422.011 125.322H397.837V111.82H425.125V122.208C425.125 123.928 423.731 125.322 422.011 125.322Z" fill="#FF9191"/>
<path d="M425.125 78.071H397.837V91.573H425.125V78.071Z" fill="#79B4C9"/>
<path d="M442.536 17.322H244.536V22.322H442.536V17.322Z" fill="#FF9191"/>
<path d="M334.536 26.322H244.536V31.322H334.536V26.322Z" fill="#FF9191"/>
<path d="M99.5899 152.936C100.184 152.217 100.778 151.498 101.372 150.778C102.929 148.893 104.485 147.008 106.042 145.123C106.94 144.036 107.868 142.934 108.549 141.693C109.149 140.6 109.324 139.332 109.511 138.106C109.901 135.554 110.291 133.001 110.681 130.449C110.99 128.424 111.977 125.549 111.346 123.532C111.213 123.108 110.938 122.746 110.726 122.356C109.581 120.243 110.25 117.311 110.647 115.054C110.773 114.336 111.146 110.613 112.195 110.56C112.815 110.529 112.84 111.322 112.774 111.759C112.589 112.986 111.858 114.197 112.597 115.38C112.833 115.759 113.263 116.051 113.706 115.995C113.893 115.971 114.079 115.888 114.264 115.927C114.666 116.01 114.766 116.574 115.127 116.77C115.508 116.978 115.977 116.933 116.295 117.247C116.684 117.631 116.688 118.369 116.758 118.881C116.961 120.357 116.93 121.865 116.665 123.331C116.504 124.223 116.256 125.103 116.201 126.008C116.163 126.635 116.218 127.264 116.28 127.889C116.906 134.225 118.072 140.788 115.428 146.834C114.318 149.372 112.754 151.69 111.041 153.867C108.643 156.913 105.911 159.734 102.695 161.898C102.288 162.171 101.845 162.443 101.355 162.448C100.987 162.452 100.635 162.302 100.313 162.122C99.2109 161.506 98.3169 160.456 97.8339 159.294C97.3889 158.223 96.7909 157.096 97.2139 155.929C97.5329 155.051 98.501 154.256 99.095 153.537C99.259 153.337 99.4239 153.137 99.5899 152.936Z" fill="#E0AC9B"/>
<path d="M100.502 278.38C100.544 276.531 100.586 274.682 100.628 272.833C100.677 270.658 100.45 268.418 101.064 266.301C101.487 264.843 102.362 263.451 103.703 262.742C104.67 262.23 105.816 262.11 106.897 262.28C107.542 262.381 108.221 262.618 108.581 263.162C109.36 264.336 108.884 266.647 108.716 267.947C108.486 269.727 108.092 271.482 107.852 273.261C107.698 274.799 107.554 276.341 107.383 277.876C107.221 279.329 107.339 280.74 107.408 282.206C107.42 282.46 107.431 282.723 107.344 282.963C107.224 283.297 106.933 283.539 106.638 283.735C105.843 284.264 104.916 284.593 103.965 284.682C103.193 284.755 102.371 284.657 101.737 284.211C101.126 283.78 100.759 283.069 100.594 282.339C100.429 281.61 100.445 280.853 100.462 280.105C100.476 279.529 100.489 278.955 100.502 278.38Z" fill="#E0AC9B"/>
<path d="M104.438 278.949C105.184 278.464 105.911 278.125 106.874 278.361C107.912 278.615 108.707 279.419 109.547 280.08C111.769 281.83 114.314 282.123 116.888 283.041C117.636 283.308 118.779 283.453 119.185 284.231C120.621 286.979 111.462 286.255 110.377 286.214C107.462 286.105 104.546 285.997 101.631 285.888C101.277 285.875 100.876 285.842 100.658 285.599C100.532 285.459 100.495 285.275 100.464 285.099C100.199 283.59 99.2359 280.415 101.406 280.015C102.407 279.83 103.251 279.755 104.114 279.165C104.224 279.091 104.331 279.018 104.438 278.949Z" fill="#111314"/>
<path d="M87.1629 160.115C87.3919 156.932 89.4279 154.913 91.9219 153.454C93.0189 153.351 94.1049 153.158 95.1769 152.839C97.1209 152.26 98.7619 151.095 100.574 150.312C100.932 150.514 101.237 150.953 101.818 151.68C103.536 153.827 105.247 155.98 106.959 158.133C108.056 159.512 108.676 159.713 107.261 160.969C106.237 161.879 105.214 162.789 104.19 163.699C103.062 164.702 101.891 165.768 101.395 167.193C101.113 168.004 101.072 168.876 101.053 169.733C101.016 171.432 101.058 173.132 101.178 174.826C101.236 175.642 101.545 177.477 100.917 178.152C100.313 178.802 98.9789 178.169 98.2249 177.872C96.1719 177.065 94.4739 175.6 92.9629 174.027C90.8789 171.858 89.1159 170.287 88.1819 167.459C87.3949 165.077 86.9849 162.588 87.1629 160.115Z" fill="white"/>
<path d="M91.7589 194.112C93.2339 192.599 95.1749 191.73 97.6299 192.078C99.5899 192.356 101.293 193.653 102.467 195.246C103.642 196.839 104.357 198.718 105.008 200.587C109.037 212.15 111.209 224.327 111.932 236.536C112.626 248.254 111.214 259.759 110.51 271.414C106.507 271.427 102.503 271.336 98.5049 271.141C98.8529 268.638 98.5819 266.251 98.6089 263.757C98.6339 261.403 98.6959 259.024 98.6359 256.65C98.5039 251.485 98.2049 246.322 97.6139 241.188C96.2929 229.721 92.2759 219.169 89.0369 208.124C87.6419 203.371 88.0609 197.906 91.7589 194.112Z" fill="#FFC370"/>
<path d="M81.6359 272.216C81.2429 274.094 80.9879 276 80.8719 277.915C80.8179 278.803 81.0879 280.056 80.4509 280.712C79.8549 281.325 78.6429 281.264 77.8799 281.154C75.2419 280.774 73.2909 279.275 73.3689 276.504C73.4579 273.354 74.1429 270.221 75.3769 267.322C75.8119 266.301 76.3339 265.282 77.1679 264.549C79.1749 262.785 82.0139 264.051 82.4499 266.591C82.7009 268.057 82.2649 269.54 81.9139 270.985C81.8149 271.393 81.7219 271.804 81.6359 272.216Z" fill="#E0AC9B"/>
<path d="M72.7609 276.026C72.9389 275.544 73.1329 275.075 73.3359 274.623C73.3909 274.501 81.0249 275.844 81.7279 275.992C81.3789 277.573 82.4019 279.058 83.4949 280.143C84.0209 280.664 84.5859 281.145 85.1949 281.567C85.8639 282.031 86.5839 282.421 87.3379 282.729C88.2719 283.11 91.1009 284.013 90.6619 285.512C90.4699 286.166 89.5599 286.457 88.7839 286.417C86.1479 286.282 83.4309 286.068 80.9839 285.062C79.0879 284.283 77.0769 283.715 75.0169 283.377C73.4169 283.115 71.6929 283.349 71.6919 281.374C71.6919 279.598 72.1289 277.735 72.7609 276.026Z" fill="#111314"/>
<path d="M72.0929 270.946C73.4709 262.49 74.8899 254.052 76.3969 245.613C77.7899 237.812 78.9529 230 78.6009 222.06C78.2379 213.875 76.3229 205.733 77.1469 197.516C77.4379 194.615 80.4429 192.417 83.0489 191.409C85.9039 190.304 89.2899 190.15 92.1969 191.153C94.4859 191.943 95.8929 194.069 96.1719 196.432C96.5009 199.232 96.2209 202.393 96.2889 205.266C96.4609 212.488 96.0589 219.708 95.6589 226.916C95.5079 229.636 95.3559 232.361 94.9389 235.053C94.4089 238.471 93.4539 241.809 92.4079 245.106C90.4949 251.138 88.2709 257.067 86.0489 262.992C84.7919 266.344 83.4759 269.674 82.4459 273.094C78.9549 272.539 75.4739 271.961 72.0929 270.946Z" fill="#DE9C40"/>
<path d="M104.355 198.52C104.111 199.531 103.591 200.478 102.587 201.441C100.913 203.045 98.6829 204.016 96.4829 204.654C92.5779 205.786 88.3809 206.164 84.4379 205.172C82.8149 204.763 81.2269 204.114 79.9239 203.063C78.3769 201.816 76.3289 199.3 75.9889 197.279C75.6149 195.056 75.8589 192.494 75.6509 190.208C75.1479 184.685 74.3539 179.189 73.2729 173.749C72.9359 172.053 72.1999 170.135 72.2499 168.407C72.2889 167.044 72.4559 165.542 72.6639 164.185C73.1079 161.281 74.3609 158.601 76.6279 156.678C79.4199 154.31 83.2059 152.784 86.9039 153.104C88.9379 153.28 91.6229 152.873 93.4579 153.664C95.4159 154.507 97.0699 156.008 98.3149 157.718C99.8199 159.785 101.457 162.624 101.173 165.226C100.82 168.465 101.482 171.802 101.865 175.025C102.623 181.41 103.791 187.743 104.377 194.149C104.528 195.819 104.669 197.222 104.355 198.52Z" fill="white"/>
<path d="M72.4719 173.802C72.8859 171.395 76.4449 168.364 78.9589 170.923C82.8829 174.917 84.56 182.164 86.059 187.133C85.741 186.077 95.8579 180.6 97.1259 179.957C99.3749 178.816 101.203 177.865 102.527 176.249C103.336 177.334 104.184 178.387 105.079 179.398C103.389 181.025 101.516 182.504 99.871 184.217C96.68 187.54 93.209 190.515 89.078 192.963C87.253 194.044 85.062 195.058 82.932 194.551C81.672 194.251 80.65 193.455 79.786 192.603C75.862 188.734 74.383 183.49 73.031 178.468C72.62 176.935 72.2049 175.358 72.4719 173.802Z" fill="#E0AC9B"/>
<path d="M70.9029 162.925C70.6979 163.529 70.5439 164.15 70.4359 164.777C69.6279 169.466 71.0609 174.528 72.4969 178.964C72.5459 179.115 72.6149 179.285 72.7829 179.342C72.9029 179.383 73.0379 179.351 73.1619 179.318C76.8459 178.355 80.5679 177.474 84.2279 176.435C83.9599 175.743 84.1739 174.716 84.0769 173.948C83.9189 172.693 83.7279 171.441 83.5279 170.191C83.1399 167.776 82.6869 165.37 82.1699 162.979C81.8029 161.283 81.6329 160.039 81.7729 158.341C81.8359 157.572 82.1929 155.474 81.2249 155.072C79.3189 154.357 76.5389 156.518 75.1489 157.55C74.4259 158.086 73.6989 158.626 73.0719 159.272C72.0759 160.298 71.3639 161.566 70.9029 162.925Z" fill="white"/>
<path d="M81.7129 155.876C82.0389 156.546 82.5219 157.127 83.2589 157.551C85.0549 158.584 87.2899 159.156 89.3609 159.156C90.7909 159.056 92.2369 158.447 92.9409 157.361C94.2969 155.271 91.4779 154.068 90.3729 152.708C89.7049 151.886 89.2039 150.929 88.9019 149.914C88.6779 149.16 88.4089 148.058 88.5129 147.276C88.6009 146.618 89.2679 146.421 89.7689 146.012C90.4369 145.467 91.3239 144.668 91.7379 143.903C92.2369 142.983 92.0479 141.542 91.8049 140.579C91.4999 139.366 90.9109 138.244 90.2669 137.172C89.5249 135.938 88.6909 134.738 87.6009 133.797C86.4189 132.776 85.0339 132.23 83.4839 132.108C81.9189 131.984 80.6719 132.856 79.5349 133.839C78.0139 135.153 76.9939 137.153 77.2219 139.195C77.3219 140.09 77.6379 140.945 77.9509 141.79C79.2699 145.353 80.5899 148.964 80.9899 152.742C81.1059 153.834 81.2569 154.941 81.7129 155.876Z" fill="#E0AC9B"/>
<path d="M74.589 134.853C74.773 134.502 75.001 134.174 75.272 133.88C75.633 133.49 76.0609 133.167 76.5089 132.883C78.5849 131.564 81.0759 130.929 83.4959 130.638C83.8159 130.599 84.14 130.569 84.461 130.606C84.965 130.665 85.4389 130.891 85.8459 131.192C86.7989 131.897 88.0849 133.62 86.7069 134.531C86.4209 134.72 86.0949 134.836 85.7719 134.951C84.4609 135.416 81.5299 135.837 81.8329 137.808C81.9649 138.667 82.518 139.39 82.919 140.161C83.412 141.108 83.22 142.347 82.894 143.323C82.508 144.477 81.9769 145.665 80.9689 146.346C80.5459 146.631 79.9659 146.806 79.5389 146.529C79.3789 146.425 79.261 146.271 79.146 146.119C77.222 143.583 74.4609 141.59 74.0279 138.211C73.8809 137.068 74.058 135.863 74.589 134.853Z" fill="#111314"/>
<path d="M81.2669 139.515C81.7429 138.868 82.5279 138.836 83.1219 139.201C83.6459 139.523 84.0439 140.19 83.9179 140.873C83.9319 140.952 83.9489 141.031 83.9519 141.113C83.9699 141.621 83.7749 142.089 83.4559 142.373C82.8659 142.898 82.1529 142.637 81.6769 142.017C81.0309 141.439 80.6239 140.39 81.2669 139.515Z" fill="#E0AC9B"/>
<path d="M102.026 176.973C102.199 176.689 102.378 176.408 102.527 176.111C103.002 175.164 103.153 174.11 103.364 173.084C103.477 172.536 103.719 171.276 104.326 171.085C104.427 171.053 104.551 171.054 104.623 171.133C104.694 171.211 104.684 171.331 104.665 171.435C104.571 171.965 104.057 173.024 104.412 173.519C104.579 173.751 104.937 173.769 105.189 173.634C105.441 173.499 105.611 173.252 105.766 173.011C106.097 172.496 107.366 168.776 108.377 169.477C108.58 169.618 108.549 169.925 108.479 170.162C108.243 170.957 107.825 171.694 107.658 172.506C107.625 172.665 107.604 172.834 107.664 172.985C107.726 173.139 107.863 173.247 107.987 173.356C110.104 175.212 106.691 178.18 105.499 179.446C105.22 179.743 104.914 180.01 104.56 180.21C104.229 180.398 103.892 180.495 103.556 180.514C103.369 180.557 103.179 180.584 102.986 180.583C101.446 180.58 101.035 179.083 101.561 177.84C101.688 177.537 101.855 177.254 102.026 176.973Z" fill="#E0AC9B"/>
<path d="M90.0639 138.835C90.4379 139.336 90.4939 140.14 90.2449 140.75C89.9959 141.36 89.4789 141.765 88.9359 141.859C88.3929 141.953 87.8329 141.756 87.3689 141.391L90.0639 138.835Z" fill="white"/>
<path d="M157.758 242.322H156.174V278.615H157.758V242.322Z" fill="#110809"/>
<path d="M143.118 286.231C143.118 280.872 152.246 278.624 156.807 278.615C162.237 278.604 170.496 280.684 170.496 286.231" stroke="#110809" stroke-width="2" stroke-miterlimit="10"/>
<path d="M156.961 287.663V278.762" stroke="#110809" stroke-width="2" stroke-miterlimit="10"/>
<path d="M172.737 287.523C172.737 288.808 171.734 289.85 170.497 289.85C169.26 289.85 168.257 288.808 168.257 287.523C168.257 286.238 169.26 285.196 170.497 285.196C171.734 285.196 172.737 286.238 172.737 287.523Z" fill="#110809"/>
<path d="M159.16 287.523C159.16 288.808 158.157 289.85 156.92 289.85C155.683 289.85 154.68 288.808 154.68 287.523C154.68 286.238 155.683 285.196 156.92 285.196C158.157 285.196 159.16 286.238 159.16 287.523Z" fill="#110809"/>
<path d="M145.584 287.523C145.584 288.808 144.581 289.85 143.344 289.85C142.107 289.85 141.104 288.808 141.104 287.523C141.104 286.238 142.107 285.196 143.344 285.196C144.581 285.196 145.584 286.238 145.584 287.523Z" fill="#110809"/>
<path d="M155.427 230.371V204.667C155.427 200.218 151.82 196.612 147.372 196.612H138.502C134.053 196.612 130.447 200.218 130.447 204.667V233.403C130.447 239.75 135.64 244.943 141.987 244.943H155.273H170.905C171.655 244.943 172.263 244.335 172.263 243.585C172.263 242.835 171.655 242.227 170.905 242.227H167.285C160.736 242.227 155.427 236.919 155.427 230.371Z" fill="white"/>
<path d="M185.579 280.293C185.496 281.968 186.867 283.391 188.358 284.163C189.856 284.938 191.55 285.291 193.012 286.132C193.38 286.344 193.748 286.605 193.922 286.992C194.226 287.672 193.793 288.5 193.158 288.889C190.972 290.231 187.61 288.658 185.348 288.254C182.983 287.832 180.618 287.411 178.252 286.989C175.612 286.989 179.631 276.459 179.925 275.705C180.195 275.012 180.473 274.306 180.954 273.739C182.016 272.486 185.74 271.375 186.816 273.059C187.752 274.523 186.56 276.989 186.069 278.422C185.862 279.028 185.617 279.633 185.579 280.293Z" fill="#110809"/>
<path d="M206.665 278.967C206.902 279.338 207.148 279.702 207.422 280.046C208.293 281.137 210.106 282.038 211.533 281.761C213.069 281.463 214.553 280.823 216.118 280.805C216.694 280.798 217.307 280.893 217.743 281.27C219.651 282.918 215.45 284.748 214.288 285.173C211.647 286.141 209.007 287.109 206.366 288.076C205.871 288.258 205.352 288.442 204.828 288.379C202.719 288.123 201.93 285.449 201.2 283.853C200.681 282.718 199.86 281.759 199.314 280.641C198.905 279.803 198.204 277.638 198.954 276.837C199.136 276.643 199.382 276.525 199.603 276.377C200.04 276.083 200.383 275.662 200.834 275.39C202.113 274.62 203.824 275.303 204.854 276.384C205.58 277.148 206.096 278.076 206.665 278.967Z" fill="#110809"/>
<path d="M167.383 210.734C167.991 212.037 168.767 213.268 169.746 214.321C171.043 215.715 172.17 215.929 173.823 214.783C174.861 214.064 175.513 212.921 176.099 211.802C176.274 211.469 176.451 211.113 176.427 210.738C176.397 210.262 176.058 209.872 175.782 209.483C174.926 208.274 174.584 206.784 174.297 205.331C173.404 201.314 173.382 197.322 173.002 193.247C172.91 192.26 172.814 191.256 172.434 190.341C172.054 189.426 171.34 188.596 170.386 188.327C169.488 188.073 168.522 188.346 167.683 188.754C165.152 189.986 164.3 193.083 164.295 195.686C164.291 198.082 164.721 200.456 165.167 202.81C165.629 205.25 166.114 207.705 167.061 210.001C167.163 210.247 167.27 210.492 167.383 210.734Z" fill="#C98D79"/>
<path d="M167.18 215.506H167.182C167.172 215.471 167.166 215.434 167.157 215.398L167.18 215.506Z" fill="#E6AC8E"/>
<path d="M161.123 186.713L161.241 187.273V187.274L161.123 186.713Z" fill="#E6AC8E"/>
<path d="M167.083 215.081C167.103 215.189 167.13 215.294 167.157 215.398L167.071 214.99C167.076 215.02 167.078 215.05 167.083 215.081Z" fill="#E6AC8E"/>
<path d="M175.564 213.836L167.182 215.505C167.782 217.596 169.881 218.934 172.068 218.539C174.306 218.135 175.817 216.063 175.564 213.836Z" fill="#E6AC8E"/>
<path d="M173.126 193.106L172.168 185.214L173.106 193.109L173.126 193.106Z" fill="#D18334"/>
<path d="M171.888 185.296C171.185 183.203 169.98 181.247 167.955 180.228C167.348 179.923 166.701 179.71 166.056 179.498C164.404 178.955 162.742 178.41 161.022 178.157C160.734 178.114 160.344 178.145 160.278 178.429C160.252 178.54 160.291 178.655 160.316 178.766C160.417 179.219 160.172 179.611 160.233 180.055C160.312 180.631 160.529 181.215 160.673 181.779C160.971 182.944 161.268 184.161 161.143 185.372C160.956 187.188 161.913 188.717 161.913 190.467C161.974 190.755 162.806 194.848 162.834 194.843L173.106 193.109C172.791 190.457 172.725 187.788 171.888 185.296Z" fill="#AB2C2C"/>
<path d="M175.607 207.818C175.309 207.36 175.04 206.879 174.795 206.393C174.357 205.523 173.906 204.544 173.011 204.159C172.323 203.863 171.505 204.004 170.857 204.379C170.209 204.753 169.706 205.334 169.268 205.941C168.596 206.87 168.037 207.905 167.821 209.032C166.958 213.535 171.43 216.116 175.164 217.126C180.361 218.532 186.221 217.64 191.519 217.302C194.646 217.102 197.773 216.902 200.9 216.703L201.109 213.188C198.214 212.875 195.319 212.561 192.425 212.248C189.813 211.965 187.2 211.682 184.588 211.399C182.249 211.146 179.671 211.568 177.675 210.092C176.846 209.477 176.172 208.686 175.607 207.818Z" fill="#C98D79"/>
<path d="M193.782 235.743C194.402 233.399 194.138 230.81 192.928 228.702C192.496 227.949 191.942 227.244 191.206 226.783C190.241 226.179 189.064 226.05 187.931 225.942C180.94 225.276 173.925 224.856 166.904 224.683C160.417 224.523 153.238 226.422 152.818 234.102C152.547 239.068 155.773 243.199 160.024 243.33C160.12 243.333 160.215 243.323 160.31 243.326C164.767 243.462 169.242 243.375 173.701 243.399C177.82 243.421 181.697 244.055 185.772 242.949C188.167 242.299 190.471 241.086 192.048 239.17C192.871 238.17 193.452 236.992 193.782 235.743Z" fill="#2D6F87"/>
<path d="M198.083 232.973C196.472 228.976 193.447 225.781 188.645 226.568C185.052 227.157 185.872 233.041 185.549 235.827C185.091 239.776 184.561 243.716 183.96 247.645C183.597 250.015 178.435 275.493 178.768 275.595C180.468 276.141 182.17 276.687 183.924 277.059C186.123 277.525 188.324 277.913 190.513 278.372C192.618 278.813 193.639 269.156 193.949 267.736C195.902 258.791 199.185 250.468 199.523 241.176C199.612 238.728 199.169 235.668 198.083 232.973Z" fill="#2D6F87"/>
<path d="M170.4 234.041C169.752 241.148 165.108 243.311 159.083 243.329L148.613 243.345C142.55 243.345 137.849 240.306 137.658 234.325V216.233L160.872 216.29L170.4 234.041Z" fill="#4D8BA1"/>
<path d="M188.397 236.993C188.467 236.145 188.347 235.277 187.984 234.416C187.411 233.059 186.147 232.118 184.838 231.442C183.631 230.818 182.346 230.361 181.057 229.931C172.2 226.976 162.956 225.184 153.636 224.615C152.159 224.525 150.677 224.465 149.202 224.577C144.835 224.908 139.027 227.725 137.99 232.439C137.355 235.324 138.224 238.267 140.26 240.394C142.757 243.002 145.548 243.258 148.905 243.503C157.762 244.151 166.632 244.633 175.507 244.944C177.475 245.013 179.478 245.07 181.376 244.547C184.541 243.676 188.106 240.506 188.397 236.993Z" fill="#4D8BA1"/>
<path d="M209.703 274.142C208.202 270.425 206.432 266.877 204.854 263.155C202.958 258.684 200.981 254.246 198.925 249.847C197.212 246.182 195.432 242.524 193.095 239.222C190.187 235.112 185.201 229.368 179.48 231.445C177.91 232.015 176.716 233.394 176.127 234.956C175.538 236.519 175.506 238.247 175.769 239.896C176.186 242.517 177.311 244.968 178.528 247.326C184.546 258.989 192.27 269.695 197.881 281.547C201.961 279.323 205.876 276.82 209.703 274.142Z" fill="#4D8BA1"/>
<path d="M166.961 181.916C166.738 181.649 166.503 181.391 166.266 181.136C165.834 180.671 165.391 180.212 164.885 179.829C162.046 177.681 157.975 177.881 154.611 177.772C151.219 177.662 148.667 177.529 145.901 179.742C142.252 182.662 139.597 186.724 138.022 191.125C135.901 197.05 136.014 202.898 136.561 209.036C137.063 214.669 137.455 220.312 137.735 225.96C141.712 225.775 145.697 225.744 149.676 225.535C154.555 225.279 160.049 225.065 164.729 223.293C165.21 217.313 166.387 211.374 167.144 205.423C167.638 201.536 167.886 197.543 168.629 193.695C169.29 190.269 169.579 185.66 167.504 182.628C167.335 182.38 167.153 182.144 166.961 181.916Z" fill="#AB2C2C"/>
<path d="M154.734 184.037C152.285 183.595 150.701 181.196 151.258 178.77C151.802 176.223 152.405 173.683 152.892 171.125C153.191 169.559 152.908 168.252 154.509 167.354C156.411 166.288 158.255 167.579 159.554 168.974C160.014 169.468 160.467 170.009 160.631 170.664C160.765 171.2 160.692 171.763 160.618 172.311C160.222 175.25 160.138 178.463 159.437 181.335C158.953 183.322 156.629 184.379 154.734 184.037Z" fill="#E0B4A6"/>
<path d="M158.213 175.934C157.97 175.946 157.734 175.959 157.518 175.988C156.24 176.159 154.967 176.405 153.694 176.613C153.205 176.693 152.658 176.76 152.254 176.472C151.568 175.984 151.803 174.944 151.88 174.106C152.071 172.027 150.813 170.091 150.569 168.017C150.306 165.779 151.337 163.434 153.165 162.116C154.549 161.118 156.334 160.746 158.01 161.027C159.901 161.343 160.565 161.876 161.119 163.771C161.358 164.587 161.596 165.403 161.835 166.219C162.07 167.024 162.306 167.832 162.426 168.662C162.667 170.337 162.418 172.079 161.718 173.619C161.396 174.327 160.963 175.011 160.322 175.452C159.76 175.873 158.952 175.898 158.213 175.934Z" fill="#E0B4A6"/>
<path d="M161.57 162.394C161.548 162.389 161.526 162.384 161.504 162.378C161.581 163.26 160.758 164.011 159.892 164.196C159.026 164.382 158.132 164.158 157.265 163.977C155.614 163.633 154.227 163.775 153.295 165.279C152.661 166.302 152.899 168.501 153.021 169.698C153.135 170.814 153.016 171.971 152.041 172.692C151.798 172.872 151.502 173.012 151.201 172.978C151.008 172.956 150.829 172.865 150.663 172.764C149.892 172.297 149.248 171.566 148.551 171.013C147.802 170.419 147.184 169.693 146.8 168.811C146.034 167.051 146.267 164.895 147.39 163.339C147.639 162.993 148.064 162.644 148.448 162.831C147.83 161.981 148.583 160.814 149.383 160.132C150.576 159.114 151.961 158.32 153.442 157.804C154.479 157.443 155.652 157.225 156.654 157.674C157.57 156.774 158.864 156.261 160.146 156.328C161.428 156.395 162.675 157.052 163.426 158.094C164.023 158.924 164.294 160.037 163.935 160.994C163.582 161.929 162.539 162.61 161.57 162.394Z" fill="#110809"/>
<path d="M154.298 169.235C154.454 169.906 154.037 170.577 153.366 170.733C152.695 170.889 152.024 170.472 151.868 169.801C151.712 169.13 152.129 168.46 152.8 168.303C153.472 168.147 154.142 168.564 154.298 169.235Z" fill="#E0B4A6"/>
<path d="M158.367 171.353C158.367 171.353 159.045 171.948 159.956 171.737C160.998 171.496 161.184 170.697 161.184 170.697" stroke="#110809" stroke-width="0.5" stroke-miterlimit="10"/>
<path d="M136.749 213.433C137.412 214.722 138.424 215.952 139.506 216.866C140.811 217.969 142.692 217.691 144.243 217.265C145.242 216.991 146.317 216.269 146.275 215.234C146.258 214.806 146.046 214.414 145.853 214.032C144.166 210.69 143.598 206.873 143.659 203.13C143.693 201.021 144.22 198.906 144.235 196.818C144.248 194.947 143.877 192.733 143.474 190.905C143.296 190.097 143.026 189.275 142.456 188.675C140.381 186.492 137.893 189.344 136.919 191.108C134.109 196.195 134.375 202.397 135.281 208.137C135.539 209.774 135.848 211.421 136.514 212.938C136.586 213.104 136.665 213.269 136.749 213.433Z" fill="#E0B4A6"/>
<path d="M145.1 199.446C145.291 197.871 145.889 196.218 146.457 194.634C146.673 194.032 146.883 193.44 147.06 192.867C147.84 190.342 148.621 187.816 149.401 185.291C149.927 183.587 150.458 181.78 150.029 180.049C149.869 179.404 149.515 178.734 148.886 178.52C148.389 178.351 147.844 178.508 147.349 178.685C142.095 180.559 137.863 184.85 135.722 189.962C135.228 191.142 133.702 195.057 133.941 197.056C137.688 197.744 141.416 198.494 145.1 199.446Z" fill="#AB2C2C"/>
<path d="M164.36 214.67C162.447 214.584 160.538 214.475 158.706 214.101C155.239 213.394 151.764 213.098 148.33 212.14C147.336 211.863 146.156 211.561 145.329 210.91C144.547 210.294 144.091 209.337 143.286 208.708C142.611 208.181 141.755 207.83 140.906 207.937C140.395 208.002 139.917 208.226 139.473 208.487C138.337 209.154 137.299 210.187 137.118 211.492C137.057 211.936 137.098 212.388 137.175 212.829C138.083 218.023 143.257 218.775 147.731 219.195C152.083 219.603 156.46 219.623 160.825 219.441C162.095 219.388 163.366 219.335 164.636 219.282C165.914 219.229 167.254 219.151 168.461 218.688C169.294 218.369 171.088 217.389 171.107 216.314C171.111 216.079 170.984 215.859 170.823 215.688C170.301 215.132 169.476 215.014 168.717 214.936C167.283 214.788 165.82 214.736 164.36 214.67Z" fill="#E0B4A6"/>
<path d="M177.523 213.899C175.711 213.564 175.001 214.079 173.178 214.745C172.49 214.997 171.518 214.239 172.185 213.929C174.028 213.075 176.332 212.215 178.224 213.178C178.662 213.401 178.19 214.022 177.523 213.899Z" fill="#E0B4A6"/>
<path d="M167.354 216.094C168.363 215.111 169.428 214.775 170.55 214.415C172.016 213.946 173.474 213.638 176.134 214.235C177.055 214.442 175.618 215.758 175.025 216.67C174.407 217.619 173.241 219.223 172.547 219.14C170.881 218.942 170.936 218.748 168.994 218.956C166.891 219.181 165.384 218.014 167.354 216.094Z" fill="#E0B4A6"/>
<path d="M177.203 220.929C175.744 219.189 173.827 218.197 171.767 217.873C170.798 217.72 170.88 218.829 171.787 218.97C173.442 219.228 174.976 219.97 176.242 221.289C176.749 221.816 177.677 221.493 177.203 220.929Z" fill="#E0B4A6"/>
<path d="M181.003 220.012C178.251 216.377 175.561 215.059 171.43 215.579C170.704 215.67 170.925 216.749 171.648 216.698C175.027 216.457 177.889 217.322 179.846 220.061C180.271 220.657 181.443 220.593 181.003 220.012Z" fill="#E0B4A6"/>
<path d="M178.897 220.774C177.689 219.4 176.333 217.958 174.703 217.081C173.218 216.282 171.683 216.336 170.053 216.502C169.324 216.576 169.591 217.686 170.311 217.612C172.013 217.439 173.453 217.534 174.895 218.544C176.089 219.38 176.864 219.909 177.822 220.999C178.306 221.549 179.381 221.325 178.897 220.774Z" fill="#E0B4A6"/>
<path d="M176.134 214.235C175.446 213.99 174.844 214.963 175.537 215.21C177.835 216.028 178.829 216.331 180.411 218.192C180.884 218.748 181.794 218.439 181.318 217.879C179.61 215.871 178.62 215.121 176.134 214.235Z" fill="#E0B4A6"/>
<path d="M210.452 219.065C208.545 216.324 205.509 215.106 202.359 215.242C201.835 215.264 201.932 216.398 202.441 216.373C205.163 216.237 207.695 217.127 209.463 219.337C209.919 219.908 210.872 219.67 210.452 219.065Z" fill="#E6AC8E"/>
<path d="M212.187 218.271C209.242 214.79 206.485 213.62 202.388 214.362C201.668 214.492 201.947 215.558 202.666 215.467C206.027 215.044 208.932 215.753 211.033 218.382C211.492 218.954 212.658 218.827 212.187 218.271Z" fill="#E6AC8E"/>
<path d="M212.554 216.512C211.208 215.273 209.723 214.012 207.949 213.43C206.347 212.904 205.029 213.045 203.426 213.382C202.709 213.532 202.974 214.424 203.682 214.275C205.357 213.923 206.716 213.923 208.331 214.624C209.573 215.163 210.44 215.867 211.508 216.85C212.048 217.346 213.093 217.009 212.554 216.512Z" fill="#E6AC8E"/>
<path d="M206.911 212.237C206.184 212.171 206.084 212.945 206.812 213.055C208.956 213.378 209.292 213.364 211.288 214.772C211.884 215.193 212.601 214.818 212 214.395C209.846 212.875 209.54 212.476 206.911 212.237Z" fill="#E6AC8E"/>
<path d="M206.338 217.862C205.031 217.792 204.091 217.21 203.055 215.706C202.639 215.102 201.316 215.749 201.806 216.298C203.16 217.812 204.826 218.916 206.945 218.792C207.668 218.75 207.069 217.901 206.338 217.862Z" fill="#E6AC8E"/>
<path d="M199.555 213.818C200.615 212.874 205.432 212.013 207.034 212.249C207.968 212.386 207.871 214.142 207.279 215.053C206.661 216.002 206.36 216.758 205.666 216.676C205.079 216.607 204.335 217.072 203.865 217.051C203.001 217.012 202.454 216.544 201.196 216.679C199.093 216.905 197.5 215.647 199.555 213.818Z" fill="#E6AC8E"/>
<path d="M245.864 222.098H120.531V224.815H245.864V222.098Z" fill="#1C2854"/>
<path d="M245.865 223.015H243.849V296.873H245.865V223.015Z" fill="#1C2854"/>
<path d="M122.547 223.015H120.531V296.873H122.547V223.015Z" fill="#1C2854"/>
<path d="M236.784 224.602H129.613V226.731H236.784V224.602Z" fill="#110809"/>
<path d="M207.91 222.18H172.814C172.814 221.503 173.363 220.953 174.041 220.953H207.911V222.18H207.91Z" fill="white"/>
<path d="M213.94 220.953H178.869L185.123 202.43C185.338 201.793 185.976 201.36 186.699 201.36H218.312C219.425 201.36 220.219 202.356 219.888 203.336L213.94 220.953Z" fill="#FFF5F5"/>
<path d="M213.94 220.953H178.701V222.18H213.94V220.953Z" fill="#C9CDD1"/>
<path d="M200.224 209.244C200.173 209.231 200.127 209.234 200.086 209.245C200.05 209.224 200.007 209.21 199.953 209.209C199.101 209.201 198.37 209.868 198.32 210.65C198.271 211.417 198.956 211.986 199.747 212.052C200.536 212.118 201.274 211.674 201.387 210.927C201.498 210.193 201.007 209.44 200.224 209.244ZM199.85 211.594C199.166 211.565 198.517 211.011 198.979 210.206C199.171 209.871 199.559 209.694 199.969 209.674C199.989 209.673 200.007 209.67 200.024 209.666C200.044 209.677 200.065 209.686 200.09 209.693C201.226 209.978 201.128 211.649 199.85 211.594Z" fill="#C9CDD1"/>
<path d="M40.693 276.998H38.962V315.188H40.693V276.998Z" fill="#110809"/>
<path d="M38.146 266.178V238.08C38.146 233.217 34.204 229.275 29.341 229.275H19.645C14.782 229.275 10.84 233.217 10.84 238.08V269.492C10.84 276.43 16.516 282.107 23.454 282.107H37.976H55.064C55.884 282.107 56.548 281.442 56.548 280.623C56.548 279.803 55.884 279.139 55.064 279.139H51.106C43.948 279.139 38.146 273.336 38.146 266.178Z" fill="white"/>
<path d="M109.892 317.097C109.981 316.933 110.067 316.77 110.152 316.607C110.37 316.186 110.577 315.706 110.445 315.25C110.319 314.813 109.919 314.523 109.554 314.252C108.555 313.509 107.636 312.659 106.818 311.72C105.916 310.684 105.131 309.536 104.093 308.635C101.948 306.774 98.181 306.645 96.353 309.048C96.016 309.491 95.751 310.003 95.678 310.555C95.503 311.885 96.438 313.079 97.326 314.085C98.473 315.385 99.635 316.671 100.814 317.942C101.875 319.085 102.918 320.295 104.113 321.311C104.364 321.525 104.614 321.729 104.859 321.935C105.208 322.229 107.603 320.112 107.892 319.845C108.711 319.092 109.35 318.094 109.892 317.097Z" fill="#CF9F8F"/>
<path d="M124.516 311.374C124.417 311.356 124.313 311.344 124.204 311.337C123.467 311.294 122.746 311.54 122.054 311.797C119.415 312.778 116.809 313.995 114.007 314.268C112.662 314.399 111.189 314.075 109.96 313.44C109.909 313.471 109.87 313.517 109.821 313.551C109.808 313.596 109.796 313.64 109.783 313.685C109.575 315.158 109.005 316.506 108.011 317.697C107.001 318.907 105.735 319.576 104.47 320.279C103.815 320.818 103.401 321.436 104.004 322.326C104.601 323.207 105.203 324.093 105.942 324.859C106.748 325.694 107.813 326.407 108.971 326.336C109.621 326.296 110.229 326.013 110.809 325.715C112.62 324.786 114.33 323.675 116.037 322.566C117.714 321.476 119.391 320.386 121.069 319.296C122.182 318.572 123.305 317.842 124.251 316.911C125.04 316.135 126.188 314.796 126.152 313.609C126.121 312.603 125.56 311.562 124.516 311.374Z" fill="#404D5C"/>
<path d="M110.764 305.008C110.364 304.524 109.998 304.007 109.622 303.504C109.037 302.723 108.418 301.967 107.766 301.24C107.44 300.875 107.095 300.511 106.656 300.293C106.273 300.103 105.841 300.038 105.417 299.975C104.762 299.878 104.098 299.781 103.441 299.863C102.329 300.001 101.297 300.678 100.728 301.643C99.279 304.1 101.916 307.099 103.304 309.049C105.004 311.437 106.99 313.622 109.21 315.536C109.884 316.117 111.228 315.996 111.874 315.356C113.258 313.987 114.419 312.394 115.299 310.659C115.753 309.764 116.372 308.118 115.411 307.308C114.942 306.913 114.416 307.135 113.835 307.045C113.139 306.937 112.476 306.606 111.925 306.173C111.493 305.833 111.116 305.434 110.764 305.008Z" fill="#E0AC9B"/>
<path d="M128.914 304.261C128.815 304.243 128.711 304.231 128.602 304.225C127.865 304.182 127.144 304.428 126.452 304.685C123.813 305.666 121.207 306.883 118.405 307.155C117.06 307.286 115.587 306.962 114.358 306.327C114.307 306.358 114.268 306.404 114.219 306.438C114.206 306.483 114.194 306.527 114.182 306.572C113.974 308.045 113.404 309.393 112.41 310.584C111.4 311.794 110.134 312.463 108.869 313.166C108.214 313.705 107.8 314.323 108.403 315.213C109.001 316.094 109.602 316.98 110.341 317.746C111.043 318.473 112.028 319.152 113.035 319.368C114.115 319.599 115.043 318.896 115.914 318.31C119.057 316.198 121.896 313.592 125.312 311.959C126.583 311.352 127.941 310.874 129.033 309.985C130.503 308.788 131.745 304.773 128.914 304.261Z" fill="#110809"/>
<path d="M51.312 250.608H51.315C51.305 250.572 51.299 250.535 51.289 250.498L51.312 250.608Z" fill="#E6AC8E"/>
<path d="M45.149 221.309L45.269 221.88L45.149 221.309Z" fill="#E6AC8E"/>
<path d="M51.214 250.175C51.234 250.285 51.262 250.391 51.289 250.498L51.202 250.083C51.207 250.114 51.208 250.144 51.214 250.175Z" fill="#E6AC8E"/>
<path d="M106.967 306.404C108.035 305.52 109.12 304.658 110.232 303.832C102.383 289.655 89.246 276.292 85.628 272.952C80.289 268.023 66.756 264.425 62.66 263.205C57.008 261.521 48.795 258.669 42.876 260.828C39.038 262.228 36.57 266.179 36.688 270.412C36.802 274.518 39.604 278.784 44.033 278.919C44.131 278.922 44.227 278.912 44.324 278.915C49.525 279.078 54.804 279.115 60.007 279.001C64.478 278.903 68.166 280.157 72.135 282.39C75.067 284.039 77.753 286.086 80.428 288.126C86.554 292.796 97.009 302.69 104.121 308.552C105.053 307.818 106.008 307.109 106.967 306.404Z" fill="#AB2C2C"/>
<path d="M58.415 248.198C60.743 249.05 63.175 249.69 65.571 250.313C66.789 250.63 68.042 250.949 69.291 250.796C71.667 250.506 73.656 248.301 73.701 245.909C73.698 246.05 65.921 242.559 65.223 242.109C62.533 240.373 60.108 238.225 58.066 235.759C56.097 233.383 54.713 230.701 53.236 228.038C51.629 225.14 51.333 221.663 49.423 218.912C48.408 217.45 46.998 216.31 45.549 215.276C41.095 212.097 42.265 218.986 42.481 221.088C43.331 229.356 44.578 239.212 51.616 244.615C53.666 246.189 55.984 247.309 58.415 248.198Z" fill="#4D8BA1"/>
<path d="M47.175 229.534C47.258 229.52 47.353 229.504 47.468 229.485L47.175 229.534Z" fill="#C9CDD1"/>
<path d="M46.89 229.582C46.89 229.582 46.93 229.575 46.99 229.565L46.89 229.582Z" fill="#C9CDD1"/>
<path d="M99.028 318.896C99.558 318.422 107.215 312.525 107.961 311.877C106.918 310.647 90.765 286.972 83.713 280.61C80.015 277.274 58.481 266.276 51.752 264.068C47.468 262.662 43.188 261.036 38.679 260.525C36.618 260.291 34.523 260.605 32.493 260.281C30.847 260.019 29.186 259.871 27.523 259.769C25.921 259.671 25.766 259.239 24.743 258.126C24.11 257.438 23.036 257.2 22.172 257.555C20.788 258.124 20.302 259.828 20.177 261.319C19.825 265.494 20.971 269.768 23.316 273.235C25.699 276.758 29.076 278.558 32.934 280.105C36.834 281.669 40.89 282.803 44.937 283.934C50.254 285.42 55.572 286.906 60.889 288.391C63.964 289.25 67.06 290.117 69.917 291.542C73.285 293.221 75.692 296.012 78.629 298.244C81.849 300.691 84.769 303.683 87.792 306.371C90.425 308.713 96.394 316.554 99.028 318.896Z" fill="#CC4949"/>
<path d="M38.822 262.485C39.89 262.348 40.954 262.188 42.01 261.976C43.297 261.717 46.353 261.354 47.242 260.296C48.066 259.316 47.766 256.211 47.849 254.934C48.379 246.734 48.225 238.511 48.524 230.303C48.673 226.197 48.757 222.752 47.307 218.868C46.148 215.764 43.901 213.393 40.659 212.491C38.056 211.767 35.276 212.066 32.698 212.887C27.609 214.508 23.651 217.726 21.15 222.383C17.868 228.492 17.493 235.602 16.651 242.329C15.722 249.751 15.552 257.268 16.149 264.723C16.212 265.513 16.294 266.335 16.705 267.013C18.072 269.274 21.29 266.694 22.931 266.007C25.456 264.95 28.067 264.087 30.755 263.556C33.418 263.029 36.131 262.83 38.822 262.485Z" fill="#79B4C9"/>
<path d="M38.648 218.586C36.156 218.136 34.545 215.695 35.111 213.226L37.299 202.994C37.303 202.975 40.942 203.652 41.185 203.696C42.112 203.863 43.039 204.033 43.966 204.198C45.002 204.383 45.858 204.178 46.063 205.531C46.149 206.098 46.03 206.674 45.881 207.227C45.491 208.664 44.891 210.031 44.43 211.445C44 212.765 44.023 214.084 43.716 215.396C43.201 217.602 40.813 218.977 38.648 218.586Z" fill="#E0AC9B"/>
<path d="M40.041 210.369C37.175 208.858 36.077 205.309 37.588 202.443C38.143 201.39 38.699 200.336 39.254 199.283C39.703 198.432 40.035 197.517 40.563 196.708C40.742 196.434 40.883 196.018 41.084 195.777C41.349 195.46 41.873 195.484 42.256 195.448C44.397 195.247 46.546 195.646 48.608 196.195C48.967 196.291 49.33 196.393 49.647 196.587C49.936 196.763 50.175 197.009 50.402 197.26C50.673 197.561 51.041 197.922 51.227 198.283C51.565 198.938 51.47 200.082 51.418 200.8C51.347 201.789 51.116 202.764 50.772 203.692C49.964 205.872 48.571 208.143 46.74 209.606C44.877 211.095 42.182 211.498 40.041 210.369Z" fill="#E0AC9B"/>
<path d="M56.055 240.634C54.043 241.03 47.122 242.252 47.121 242.286C47.08 244.082 47.039 245.878 46.999 247.674C49.135 247.196 51.27 246.718 53.406 246.24C54.677 245.956 57.116 245.565 57.784 244.254C57.981 243.867 57.997 243.415 58.005 242.98C58.017 242.35 58.019 241.701 57.792 241.113C57.693 240.856 57.533 240.599 57.276 240.501C57.043 240.412 56.782 240.472 56.539 240.533C56.455 240.554 56.288 240.588 56.055 240.634Z" fill="#E0AC9B"/>
<path d="M64.941 238.617C63.993 238.601 63.016 238.83 62.215 239.343C61.406 239.862 60.992 240.698 60.46 241.466C60.158 241.901 59.81 242.305 59.423 242.667C59.198 242.878 58.914 243.087 58.611 243.028C58.488 243.004 58.377 242.936 58.28 242.855C57.57 242.263 57.723 241.27 58.333 240.696C59.082 239.991 59.786 239.239 60.612 238.611C60.979 238.332 61.368 238.066 61.809 237.93C62.133 237.83 62.475 237.804 62.814 237.782C63.323 237.749 63.833 237.723 64.342 237.706C64.65 237.695 65.243 237.562 65.522 237.718C66.142 238.063 65.344 238.624 64.941 238.617Z" fill="#E0AC9B"/>
<path d="M54.056 242.077C54.065 242.056 54.076 242.035 54.086 242.015C54.561 241.091 55.654 240.748 56.582 240.512C57.879 240.182 59.187 239.876 60.469 239.495C61.673 239.137 63.037 238.877 64.254 239.313C64.359 239.35 64.478 239.415 64.485 239.526C64.491 239.631 64.392 239.708 64.307 239.769C63.685 240.213 63.453 240.783 63.106 241.424C62.73 242.118 62.239 242.764 61.854 243.459C61.591 243.935 61.408 244.459 61.067 244.889C60.666 245.394 60.132 245.446 59.518 245.558C58.177 245.803 56.797 245.842 55.444 245.671C55.283 245.65 55.118 245.626 54.972 245.554C54.747 245.443 54.59 245.23 54.463 245.014C54.018 244.256 53.662 242.938 54.056 242.077Z" fill="#E0AC9B"/>
<path d="M65.806 245.726C64.563 244.665 63.049 243.956 61.435 243.695C60.927 243.613 59.824 243.342 59.399 243.723C58.984 244.095 58.878 245.067 59.501 245.279C59.688 245.343 59.891 245.313 60.087 245.29C61.318 245.146 62.583 245.307 63.743 245.742C64.24 245.928 64.759 246.348 65.274 246.414C65.692 246.468 66.29 246.139 65.806 245.726Z" fill="#E0AC9B"/>
<path d="M68.882 243.92C69.106 243.331 67.731 242.64 67.35 242.393C66.478 241.827 65.526 241.368 64.522 241.091C63.53 240.818 62.488 240.755 61.466 240.854C61.057 240.894 60.85 241.049 60.491 241.176C60.239 241.266 59.777 241.168 59.676 241.506C59.624 241.681 59.753 241.862 59.906 241.963C60.354 242.261 60.945 242.128 61.478 242.058C62.699 241.898 63.967 242.152 65.04 242.752C65.827 243.192 67.778 244.918 68.717 244.133C68.801 244.065 68.854 243.993 68.882 243.92Z" fill="#E0AC9B"/>
<path d="M67.394 245.269C67.437 245.02 67.356 244.746 67.207 244.535C67.01 244.257 66.715 244.066 66.421 243.894C65.111 243.125 63.728 242.649 62.267 242.264C61.581 242.083 61.012 241.957 60.279 242.015C59.466 242.079 58.67 242.275 57.886 242.49C57.167 242.687 57.622 243.756 58.332 243.561C60.011 243.1 61.471 242.952 63.089 243.722C63.858 244.088 64.633 244.447 65.354 244.904C65.805 245.19 66.846 246.328 67.316 245.497C67.354 245.425 67.38 245.348 67.394 245.269Z" fill="#E0AC9B"/>
<path d="M63.604 239.172C63.364 239.173 63.152 239.222 62.998 239.348C62.754 239.548 62.703 239.863 62.812 240.162C62.968 240.592 63.386 240.646 63.795 240.692C65.063 240.836 66.302 241.225 67.429 241.825C67.899 242.075 68.37 242.518 68.905 242.615C69.32 242.69 69.911 242.383 69.422 241.972C68.218 240.959 66.964 240.069 65.442 239.609C65.007 239.477 64.217 239.169 63.604 239.172Z" fill="#E0AC9B"/>
<path d="M37.316 250.875C37.862 250.839 38.406 250.789 38.948 250.725C42.996 250.245 46.927 248.996 50.653 247.342C50.327 245.147 50 242.952 49.674 240.757C47.436 241.715 44.991 242.083 42.566 242.297C39.875 242.535 37.111 242.587 34.532 241.782C31.954 240.977 29.564 239.19 28.614 236.662C27.921 234.819 28.044 232.758 28.509 230.845C28.974 228.932 29.764 227.116 30.402 225.253C30.683 224.434 30.937 223.583 30.894 222.718C30.802 220.856 28.991 219.487 27.182 219.697C25.432 219.901 23.857 221.219 22.796 222.549C20.895 224.932 19.489 227.711 18.72 230.663C17.609 234.928 17.842 239.603 19.848 243.573C21.21 246.269 24.056 248.524 26.885 249.532C30.211 250.717 33.788 251.105 37.316 250.875Z" fill="#4D8BA1"/>
<path d="M53.101 196.382C52.167 195.213 50.926 194.466 49.978 193.361C45.94 188.655 36.794 188.091 33.287 193.763C31.367 196.868 31.437 201.018 33.254 204.152C33.523 204.617 34.573 205.644 34.473 206.218C34.315 207.123 32.866 206.834 32.148 206.856C29.892 206.925 27.61 207.224 25.566 208.242C23.501 209.27 21.218 211.432 21.171 213.901C21.125 216.325 22.356 218.832 25.125 217.464C26.125 216.97 26.925 216.153 27.865 215.553C29.702 214.382 31.84 214.25 33.761 213.338C34.675 212.904 35.51 212.227 35.937 211.31C36.244 210.651 36.324 209.913 36.455 209.197C36.665 208.05 36.755 206.77 37.929 206.406C39.004 206.073 40.018 206.642 40.854 205.573C41.478 204.775 41.698 203.675 42.025 202.737C42.364 201.766 43.18 199.694 44.541 199.947C45.38 200.103 45.128 200.681 45.596 201.158C46.235 201.809 46.96 201.751 47.851 201.579C49.296 201.3 50.775 201.008 52.035 200.247C52.972 199.68 53.814 198.7 53.676 197.613C53.616 197.146 53.394 196.748 53.101 196.382Z" fill="black"/>
<path d="M47.218 207.042C46.818 207.053 46.508 207.407 46.108 207.503C45.57 207.632 44.796 207.564 44.54 206.993C44.476 206.851 44.249 206.952 44.291 207.098C44.467 207.704 45.075 207.95 45.661 207.989C46.187 208.023 47.256 207.859 47.36 207.229C47.375 207.138 47.322 207.039 47.218 207.042Z" fill="#110809"/>
<path d="M24.69 323.201C24.69 317.562 34.668 315.197 39.654 315.187C45.589 315.176 54.618 317.364 54.618 323.201" stroke="#110809" stroke-width="2" stroke-miterlimit="10"/>
<path d="M39.822 324.709V315.342" stroke="#110809" stroke-width="2" stroke-miterlimit="10"/>
<path d="M54.618 327.011C55.9705 327.011 57.067 325.914 57.067 324.562C57.067 323.209 55.9705 322.113 54.618 322.113C53.2655 322.113 52.169 323.209 52.169 324.562C52.169 325.914 53.2655 327.011 54.618 327.011Z" fill="#110809"/>
<path d="M39.778 327.011C41.1305 327.011 42.227 325.914 42.227 324.562C42.227 323.209 41.1305 322.113 39.778 322.113C38.4254 322.113 37.329 323.209 37.329 324.562C37.329 325.914 38.4254 327.011 39.778 327.011Z" fill="#110809"/>
<path d="M24.937 327.011C26.2895 327.011 27.386 325.914 27.386 324.562C27.386 323.209 26.2895 322.113 24.937 322.113C23.5844 322.113 22.488 323.209 22.488 324.562C22.488 325.914 23.5844 327.011 24.937 327.011Z" fill="#110809"/>
<path d="M137.005 250.135H0V253.105H137.005V250.135Z" fill="#1C2854"/>
<path d="M137.005 251.137H134.801V331.872H137.005V251.137Z" fill="#1C2854"/>
<path d="M2.204 251.137H0V331.872H2.204V251.137Z" fill="#1C2854"/>
<path d="M127.078 252.872H9.927V255.2H127.078V252.872Z" fill="#110809"/>
<path d="M95.516 250.224H57.152C57.152 249.483 57.752 248.883 58.493 248.883H95.517L95.516 250.224Z" fill="white"/>
<path d="M102.107 248.883H63.771L70.608 228.635C70.843 227.939 71.541 227.465 72.33 227.465H106.887C108.104 227.465 108.971 228.553 108.609 229.625L102.107 248.883Z" fill="#FFF5F5"/>
<path d="M102.107 248.883H63.587V250.224H102.107V248.883Z" fill="#C9CDD1"/>
<path d="M87.114 236.084C87.058 236.07 87.008 236.073 86.963 236.085C86.924 236.062 86.876 236.047 86.818 236.046C85.886 236.037 85.088 236.766 85.033 237.622C84.979 238.461 85.728 239.083 86.593 239.155C87.456 239.227 88.262 238.742 88.385 237.925C88.506 237.121 87.97 236.299 87.114 236.084ZM86.705 238.653C85.957 238.621 85.248 238.016 85.753 237.136C85.963 236.77 86.387 236.576 86.835 236.554C86.856 236.553 86.876 236.55 86.895 236.545C86.916 236.557 86.94 236.567 86.968 236.574C88.21 236.886 88.102 238.713 86.705 238.653Z" fill="#C9CDD1"/>
<path d="M341.636 288.719H457.342C459.2 283.353 459.2 277.221 457.342 270.322H345.398C343.32 270.322 341.636 272.006 341.636 274.084V288.719Z" fill="#FF9191"/>
<path d="M326.628 311.957H442.334C445.309 303.768 445.116 295.879 442.334 288.235H330.39C328.312 288.235 326.628 289.919 326.628 291.997V311.957Z" fill="#79B4C9"/>
<path d="M342.149 304.211H412.773C414.393 304.211 415.707 302.897 415.707 301.277V296.978C415.707 295.358 414.393 294.044 412.773 294.044H342.149C340.529 294.044 339.215 295.358 339.215 296.978V301.277C339.216 302.897 340.529 304.211 342.149 304.211Z" fill="#4D8BA1"/>
<path opacity="0.58" d="M434.346 308.084C435.549 308.084 436.525 307.109 436.525 305.905V295.254C436.525 294.051 435.55 293.075 434.346 293.075C433.143 293.075 432.168 294.05 432.168 295.254V305.905C432.168 307.108 433.143 308.084 434.346 308.084Z" fill="#404D5C"/>
<path d="M316.946 330.353H432.652C435.128 324.721 435.288 318.462 432.652 311.472H320.708C318.63 311.472 316.946 313.156 316.946 315.234V330.353Z" fill="#404D5C"/>
<path opacity="0.54" d="M441.85 279.52C441.85 282.194 444.018 284.361 446.691 284.361C449.365 284.361 451.532 282.193 451.532 279.52C451.532 276.846 449.365 274.679 446.691 274.679C444.018 274.679 441.85 276.847 441.85 279.52Z" fill="#FF9191"/>
<path d="M383.559 248.392C383.634 248.046 383.713 247.702 383.797 247.358C384.086 246.173 384.455 244.956 385.278 244.056C387.487 241.64 390.411 243.679 391.209 246.164C392.837 251.238 391.836 256.597 391.782 261.755C391.769 262.951 391.493 265.089 390.299 265.743C389.379 266.247 386.676 266.662 385.639 266.416C384.641 266.179 383.861 265.356 383.434 264.424C383.006 263.492 382.881 262.453 382.793 261.431C382.418 257.077 382.637 252.662 383.559 248.392Z" fill="#E0AC9B"/>
<path d="M382.408 263.594C382.705 263.218 383.138 262.948 383.764 262.852C384.36 262.76 384.967 262.857 385.57 262.872C386.602 262.896 387.639 262.673 388.569 262.226C389.368 261.842 390.151 261.281 391.035 261.329C391.619 261.36 392.154 261.659 392.634 261.994C394.015 262.959 395.161 264.205 396.639 265.035C398.243 265.936 400.034 266.504 401.864 266.689C403.036 266.807 404.318 266.805 405.237 267.541C405.668 267.887 405.99 268.429 405.905 268.975C405.821 269.514 405.358 269.931 404.846 270.119C403.857 270.482 402.464 270.418 401.417 270.453C400.214 270.493 399.009 270.445 397.806 270.436C393.415 270.403 389.024 270.382 384.633 270.391C384.122 270.392 383.602 270.391 383.116 270.232C381.982 269.859 381.905 268.774 381.856 267.733C381.796 266.446 381.597 264.621 382.408 263.594Z" fill="#CC4949"/>
<path d="M357.843 259.686C357.827 259.952 357.811 260.217 357.795 260.483C357.728 261.592 356.967 262.842 357.739 263.784C358.421 264.615 359.873 265.522 360.742 266.217C361.728 267.007 363.698 267.912 364.893 267.01C366.178 266.04 366.164 263.14 366.362 261.706C366.582 260.109 366.803 258.512 367.023 256.916C367.16 255.926 367.296 254.934 367.344 253.936C367.457 251.555 368.027 247.29 366.279 245.388C363.701 242.584 359.597 246.945 358.823 249.493C358.375 250.968 358.279 252.524 358.185 254.063C358.07 255.937 357.957 257.812 357.843 259.686Z" fill="#E0AC9B"/>
<path d="M359.009 262.984C358.663 262.836 358.329 262.662 358.008 262.461C356.662 261.619 354.749 263.799 353.4 264.437C351.721 265.231 349.899 265.508 348.092 265.849C346.773 266.098 344.398 266.015 343.604 267.284C343.037 268.19 343.457 269.59 344.411 270.079C345.3 270.534 346.57 270.123 347.52 270.142C348.503 270.161 349.486 270.18 350.469 270.198C353.534 270.254 356.599 270.303 359.665 270.346C361.571 270.373 365.211 271.371 366.67 269.718C367.56 268.71 367.335 267.173 367.057 265.858C366.867 264.957 366.677 264.057 366.486 263.156C364.087 263.645 361.324 263.977 359.009 262.984Z" fill="#CC4949"/>
<path d="M327.082 129.481C326.86 129.31 326.628 129.139 326.386 128.966C325.19 128.11 323.838 126.915 322.294 126.86C322.026 126.851 321.761 126.919 321.501 126.987C321.203 127.065 320.902 127.143 320.629 127.285C319.402 127.92 319.423 129.219 320.207 130.204C321.894 132.321 324.23 133.804 326.52 135.247C326.668 135.34 326.824 135.436 326.998 135.45C327.254 135.47 327.487 135.31 327.681 135.141C328.487 134.438 329.014 133.477 329.524 132.538C329.562 132.467 329.602 132.393 329.603 132.313C329.605 132.215 329.55 132.127 329.498 132.044C328.809 130.959 328.031 130.211 327.082 129.481Z" fill="#E0AC9B"/>
<path d="M314.523 121.345C315.957 122.31 319.286 123.987 321.175 125.054C322.264 125.669 323.809 126.335 324.519 127.414C325.187 128.429 325.476 130.281 324.756 131.326C324.366 131.892 323.703 132.228 323.025 132.34C322.347 132.452 321.651 132.363 320.98 132.218C319.556 131.912 318.178 131.353 316.976 130.525C316.526 130.215 315.706 129.732 315.504 129.203C315.341 128.777 315.554 128.113 316.081 128.091C315.802 127.815 315.731 127.351 315.915 127.005C316.099 126.658 316.523 126.457 316.908 126.534C316.652 126.213 316.656 125.711 316.919 125.395C317.444 124.762 317.881 125.27 318.408 125.441C318.582 125.171 318.352 125.177 318.123 125.049C316.631 124.213 315.731 123.693 314.311 122.737C313.629 122.276 313.841 120.887 314.523 121.345Z" fill="#E0AC9B"/>
<path d="M323.065 122.669C323.128 122.462 323.23 122.271 323.419 122.182C323.785 122.01 324.213 122.371 324.298 122.766C324.383 123.162 324.251 123.567 324.191 123.967C323.978 125.376 324.648 126.745 325.029 128.118C325.062 128.236 325.092 128.359 325.068 128.479C325.03 128.664 324.864 128.8 324.686 128.865C324.298 129.008 323.847 128.872 323.532 128.604C322.186 127.458 322.717 124.405 323.005 122.915C323.022 122.835 323.04 122.751 323.065 122.669Z" fill="#E0AC9B"/>
<path d="M395.67 151.885C396.073 151.683 395.401 149.689 394.85 149.748C392.809 149.896 390.305 149.689 388.681 150.718C388.261 150.984 389.198 152.443 389.614 152.179C390.844 151.399 392.68 151.779 394.298 151.814C394.86 151.853 395.212 152.114 395.67 151.885Z" fill="#E0AC9B"/>
<path d="M378.829 106.873C378.909 107.931 379.361 112.645 379.353 113.585C379.339 115.232 376.345 122.605 374.714 122.573C372.925 122.538 370.22 115.4 370.216 113.701C370.209 111.389 370.635 106.814 370.636 106.784C371.801 100.764 378.501 102.536 378.829 106.873Z" fill="#E0AC9B"/>
<path d="M358.337 170.641H391.944V152.665H358.337V170.641Z" fill="#1E3ABA"/>
<path d="M370.491 108.493C370.57 107.501 370.635 106.796 370.635 106.784C371.802 100.764 378.502 102.536 378.829 106.873C378.861 107.292 378.951 108.286 379.048 109.391C378.949 109.537 378.842 109.661 378.722 109.754C376.455 111.665 372.983 111.216 370.491 108.493Z" fill="url(#paint0_linear_0_23)"/>
<path d="M373.925 164.21C374.874 159.279 377.354 155.418 383.094 155.419C387.287 155.42 389.038 158.031 390.805 161.359C393.176 165.824 393.774 170.385 394.028 175.388C394.7 188.641 394.84 201.913 394.824 215.181C394.81 227.057 394.717 238.904 394.968 250.778C395.006 252.574 395.051 254.37 395.104 256.166C392.121 256.326 389.133 256.387 386.147 256.349C384.683 256.33 383.185 256.358 381.727 256.231C381.039 256.171 381.147 256.487 381.049 255.607C380.963 254.841 380.981 254.049 380.944 253.278C380.661 247.334 380.264 241.396 379.797 235.463C378.986 225.148 377.943 214.855 376.988 204.553C376.297 197.276 375.653 190.085 374.249 182.979C373.106 177.196 372.815 169.984 373.925 164.21Z" fill="#DE9C40"/>
<path d="M359.681 256.38C362.806 256.379 365.93 256.377 369.055 256.376C368.638 256.376 372.352 225.2 372.653 222.553C374.414 207.071 376.356 191.32 376.356 175.716C376.521 170.344 376.884 164.836 375.589 159.6C374.606 155.627 370.555 151.456 366.467 150.757C360.849 149.797 358.406 156.488 357.395 160.939C356.537 164.716 356.46 168.621 356.387 172.493C356.273 178.528 356.158 184.563 356.044 190.598C355.836 201.568 355.629 212.54 355.788 223.512C355.947 234.485 356.774 245.426 357.111 256.379C357.967 256.381 358.824 256.381 359.681 256.38Z" fill="#FFC370"/>
<path d="M359.465 118.896C359.711 117.808 358.773 115.46 360.538 114.042C362.269 113.526 363.995 112.987 365.737 112.509C367.233 112.099 368.708 111.496 370.286 111.624C370.345 111.629 370.407 111.636 370.451 111.675C370.498 111.717 370.511 111.785 370.522 111.847C370.593 112.273 370.672 112.7 370.824 113.104C371.243 114.213 372.295 115.454 373.223 116.195C374.453 117.177 375.693 116.523 376.63 115.513C377.173 114.927 377.604 114.359 377.975 113.661C378.324 113.005 378.858 112.477 379.236 111.833C379.27 111.776 379.305 111.715 379.362 111.681C379.436 111.636 379.529 111.644 379.615 111.654C380.118 111.71 380.622 111.766 381.125 111.822C381.438 111.857 381.751 111.892 382.057 111.965C382.995 112.189 383.909 112.373 384.843 112.618C386.362 113.016 387.869 113.461 389.374 113.91C391.139 115.328 389.317 117.817 389.563 118.904C390.298 122.153 389.878 161.445 389.878 161.445H359.895C359.895 161.447 358.73 122.145 359.465 118.896Z" fill="white"/>
<path d="M369.983 94.456C371.126 93.828 373.312 94.517 374.622 94.456C375.932 94.517 377.954 94.495 379.004 95.269C381.226 96.909 381.47 100.385 380.701 102.986C380.572 103.422 380.306 104.503 380.165 104.935C379.38 107.339 378.054 107.99 377.315 108.558C375.572 109.898 373.237 110.036 371.455 108.664C370.432 107.876 369.861 106.646 369.393 105.443C368.561 103.304 368.01 101.304 368.179 98.996C368.284 97.565 368.556 95.24 369.983 94.456Z" fill="#E0AC9B"/>
<path d="M352.532 163.213C352.421 167.166 351.751 171.981 355.902 174.286C356.538 174.639 357.258 174.811 357.978 174.917C363.053 175.664 369.876 172.921 372.287 168.154C373.598 165.562 373.3 162.055 373.14 159.259C372.225 143.337 370.857 127.426 368.834 111.598C366.566 111.794 364.249 112.406 362.024 112.915C360.399 113.286 358.637 113.574 357.539 114.946C355.936 116.949 355.607 119.96 355.162 122.398C353.78 129.968 353.427 137.683 353.129 145.372C352.898 151.317 352.699 157.265 352.532 163.213Z" fill="#CC4949"/>
<path d="M393.804 167.083C393.823 165.962 393.596 164.82 393.294 163.581C392.468 160.19 392.243 156.852 391.636 153.426C391.275 151.387 391.55 149.844 391.9 147.766C392.722 142.879 393.343 137.959 393.76 133.021C394.029 129.843 394.213 126.657 394.313 123.469C394.401 120.665 394.989 117.754 393.213 115.393C390.861 112.266 384.964 111.759 381.305 111.326C381.145 111.307 380.97 111.293 380.836 111.382C380.692 111.478 380.642 111.663 380.603 111.831C378.386 121.398 377.384 131.189 376.768 140.975C376.46 145.868 376.247 150.765 376.015 155.662C375.824 159.706 374.802 164.056 376.433 167.921C378.305 172.358 383.59 173.195 387.799 173.174C388.384 173.171 388.975 173.159 389.546 173.029C390.892 172.724 392.039 171.772 392.761 170.595C393.5 169.39 393.784 168.248 393.804 167.083Z" fill="#CC4949"/>
<path d="M326.027 130.021C326.353 129.442 326.688 128.868 327.032 128.3C333.168 130.653 339.09 133.563 344.702 136.984C347 138.385 351.293 142.136 350.624 145.229C350.427 146.141 349.791 146.915 349.018 147.436C347.393 148.532 345.235 148.571 343.359 148.004C341.483 147.436 339.823 146.332 338.194 145.242C335.044 143.135 331.895 141.028 328.745 138.921C327.368 138 325.322 137.106 324.182 135.936C323.273 135.003 323.624 134.664 324.245 133.402C324.807 132.259 325.401 131.131 326.027 130.021Z" fill="#CC4949"/>
<path d="M342.416 141.602C342.427 141.576 342.444 141.555 342.455 141.529C343.544 138.215 346.254 131.06 348.041 127.508C349.695 124.219 351.099 120.686 353.321 117.722C355.558 114.738 357.766 113.636 361.453 112.921C366.993 111.846 367.648 116.562 365.756 120.784C362.066 129.018 357.415 136.821 351.927 143.985C350.477 145.878 348.625 147.898 346.241 147.869C343.264 147.833 341.323 144.232 342.416 141.602Z" fill="#CC4949"/>
<path d="M395.487 149.111C394.949 149.179 393.897 149.605 393.267 150.311C392.596 151.064 391.565 152.252 391.213 152.532C389.56 153.847 387.776 154.964 385.888 155.913C385.328 156.194 385.864 157.278 386.426 156.995C387.935 156.237 389.379 155.37 390.75 154.389C390.85 154.536 390.953 154.681 391.058 154.824C389.384 156.538 387.479 157.932 385.329 158.985C384.765 159.261 385.302 160.344 385.867 160.067C388.09 158.978 390.078 157.545 391.812 155.77C391.909 155.883 392.007 155.996 392.106 156.107C390.696 157.896 388.974 159.302 386.954 160.316C386.394 160.597 386.93 161.68 387.492 161.398C389.624 160.328 391.442 158.844 392.937 156.963C393.052 157.072 393.168 157.18 393.285 157.286C392.445 158.707 391.435 159.947 389.866 160.538C389.273 160.761 389.79 161.882 390.381 161.66C392.106 161.011 393.242 159.636 394.146 158.12L394.164 158.135C395.255 157.092 396.146 156.19 397.015 155.119C397.797 154.155 398.374 153.144 398.692 151.985C399.13 150.39 396.451 148.99 395.487 149.111Z" fill="#E0AC9B"/>
<path d="M394.667 149.447C394.37 149.038 394.153 148.737 394.076 148.62C393.966 148.452 393.852 148.27 393.858 148.069C393.865 147.818 394.054 147.615 394.232 147.439C399.323 142.377 404.616 137.519 410.093 132.879C411.739 131.484 413.851 131.382 415.539 132.773C417.23 134.167 417.061 137.069 416.298 138.92C416.272 138.982 416.246 139.043 416.22 139.104C415.577 140.567 414.544 141.827 413.474 143.017C409.124 147.853 403.894 151.888 398.128 154.896C398.491 154.708 395.896 151.142 394.667 149.447Z" fill="#CC4949"/>
<path d="M386.566 114.979C387.292 114.32 388.158 113.915 389.057 113.744C389.081 113.739 389.105 113.74 389.129 113.736C389.337 113.701 389.546 113.675 389.756 113.665C394.331 113.318 398.353 117.203 401.357 120.09C403.141 121.804 405.408 123.102 407.295 124.735C409.4 126.84 411.483 128.851 413.762 130.816C414.499 131.451 415.244 132.095 415.804 132.892C416.364 133.688 416.727 134.666 416.602 135.631C416.196 138.779 412.845 140.772 409.91 140.272C407.581 139.875 405.576 138.446 403.685 137.029C400.092 134.336 396.577 131.541 393.145 128.646C390.381 126.316 386.526 124.037 385.273 120.537C384.59 118.63 385.05 116.355 386.566 114.979Z" fill="#CC4949"/>
<path d="M366.933 95.111C366.772 94.202 366.756 93.308 367.178 92.584C367.594 91.87 368.162 91.171 368.154 90.345C368.136 88.527 370.733 87.724 372.174 87.138C373.188 86.725 374.258 86.305 375.345 86.439C376.029 86.524 376.669 86.826 377.258 87.184C379.355 88.459 381.288 90.564 381.653 93.011C381.913 94.747 382.412 97.679 381.286 99.234C380.332 100.551 379.997 98.862 379.605 97.879C379.32 97.167 379.002 96.445 378.463 95.9C377.924 95.354 377.114 95.013 376.377 95.226C375.805 95.391 375.371 95.85 374.852 96.142C374.014 96.613 372.931 96.615 372.091 96.146C371.504 95.818 370.969 95.261 370.297 95.303C369.759 95.337 369.314 95.775 369.109 96.274C368.904 96.773 368.892 97.327 368.882 97.866C368.864 98.891 368.858 99.918 368.827 100.943C368.202 100.046 367.765 98.931 367.573 97.855C367.43 97.042 367.101 96.068 366.933 95.111Z" fill="#110809"/>
<path d="M380.454 101.083C380.454 101.717 380.742 102.23 381.097 102.23C381.452 102.23 381.74 101.716 381.74 101.083C381.74 100.449 381.452 99.936 381.097 99.936C380.742 99.936 380.454 100.449 380.454 101.083Z" fill="#E0AC9B"/>
<path d="M367.515 101.083C367.515 101.717 367.803 102.23 368.158 102.23C368.513 102.23 368.801 101.716 368.801 101.083C368.801 100.449 368.513 99.936 368.158 99.936C367.803 99.936 367.515 100.449 367.515 101.083Z" fill="#E0AC9B"/>
<path d="M374.203 104.676C373.906 104.682 373.608 104.644 373.322 104.565C373.103 104.504 372.836 104.431 372.676 104.592C371.974 105.297 372.896 106.225 373.595 106.465C373.717 106.507 373.847 106.527 373.976 106.532C374.743 106.564 375.339 106.075 375.583 105.359C375.661 105.131 375.682 104.845 375.507 104.68C375.309 104.494 374.994 104.568 374.728 104.62C374.555 104.654 374.379 104.672 374.203 104.676Z" fill="#110809"/>
<path d="M88.294 176.413C87.904 173.308 87.161 170.247 86.082 167.309" stroke="#1959A8" stroke-width="0.75" stroke-miterlimit="10"/>
<path d="M109.608 275.418C109.536 275.382 109.463 275.346 109.391 275.31L109.608 275.418Z" fill="#FFC370"/>
</g>
<defs>
<linearGradient id="paint0_linear_0_23" x1="374.769" y1="98.8605" x2="374.769" y2="112.872" gradientUnits="userSpaceOnUse">
<stop offset="4e-07" stop-color="#BA7461"/>
<stop offset="1" stop-color="#E0AC9B"/>
</linearGradient>
<clipPath id="clip0_0_23">
<rect width="461" height="336" fill="white"/>
</clipPath>
</defs>
</svg>
